<svg width="1500" height="1500" viewBox="0 0 1500 1500" fill="none" xmlns="http://www.w3.org/2000/svg">
<path d="M15.5862 0.308189V19.724L4.54115 0.308189H0V27.2747H4.23328V7.93585L15.2783 27.2747H19.8194V0.308189H15.5862Z" transform="translate(431.358 1138.25) scale(3)" fill="white"/>
<path d="M59.6042 0.308189L54.6782 21.265L49.3289 3.15893H45.4805L40.1311 21.265L35.2051 0.308189H30.741L37.8606 27.2747H42.1708L47.4047 10.1702L52.6385 27.2747H56.9488L64.0684 0.308189H59.6042Z" transform="translate(431.358 1138.25) scale(3)" fill="white"/>
<path d="M74.2377 27.2747H78.471V14.8701H89.4005V27.2747H93.6338V0.308189H89.4005V10.8636H78.471V0.308189H74.2377V27.2747Z" transform="translate(431.358 1138.25) scale(3)" fill="white"/>
<path d="M112.89 0.308189L103.538 27.2747H107.848L110.08 20.5716H119.701L121.933 27.2747H126.244L116.892 0.308189H112.89ZM114.891 5.66296L118.431 16.5651H111.35L114.891 5.66296Z" transform="translate(431.358 1138.25) scale(3)" fill="white"/>
<path d="M157.891 8.16699C156.506 3.08188 152.734 0 147 0C140.496 0 134.531 4.66135 134.531 13.7914C134.531 22.9215 140.496 27.5828 147 27.5828C152.734 27.5828 156.506 24.501 157.891 19.4159L153.889 18.4142C152.542 21.8428 150.656 23.5764 147 23.5764C142.459 23.5764 138.841 20.3789 138.841 13.7914C138.841 7.2039 142.459 4.00645 147 4.00645C150.656 4.00645 152.542 5.74001 153.889 9.1686L157.891 8.16699Z" transform="translate(431.358 1138.25) scale(3)" fill="white"/>
<path d="M168.908 0.308189V27.2747H173.141V14.0611L183.378 27.2747H188.804L177.066 12.3661L187.919 0.308189H182.762L173.141 10.671V0.308189H168.908Z" transform="translate(431.358 1138.25) scale(3)" fill="white"/>
<path d="M213.078 4.54578C211.654 2.00322 209.345 0 205.651 0C201.726 0 198.608 3.00484 198.608 7.08833C198.608 15.4094 210.077 14.2537 210.077 19.5314C210.077 21.9199 208.383 23.5764 205.959 23.5764C202.88 23.5764 201.302 20.8798 200.533 17.8749L197.069 20.0708C198.031 24.3854 201.225 27.5828 205.959 27.5828C210.808 27.5828 214.387 24.3083 214.387 19.3773C214.387 11.0563 202.842 12.0964 202.842 6.78014C202.842 5.20068 203.919 3.85235 205.651 3.85235C207.229 3.85235 208.576 4.77692 209.653 6.81866L213.078 4.54578Z" transform="translate(431.358 1138.25) scale(3)" fill="white"/>
<path fill-rule="evenodd" clip-rule="evenodd" d="M0 36.6891L36.6517 0V264.161L0 227.472V36.6891Z" transform="translate(960.864 279) scale(3)" fill="url(#paint0_linear)"/>
<path fill-rule="evenodd" clip-rule="evenodd" d="M0 0L36.6517 34.8546V225.638L0 262.327V0Z" transform="translate(433.081 284.503) scale(3)" fill="url(#paint1_linear)"/>
<path fill-rule="evenodd" clip-rule="evenodd" d="M2.36258 116.507L88.1575 24.5018L61.3853 0L0 63.362L2.36258 116.507Z" transform="matrix(2.99696 0.134993 -0.133319 2.99704 441.533 721.989)" fill="url(#paint2_linear)"/>
<path fill-rule="evenodd" clip-rule="evenodd" d="M0 51.3647V0L212.58 212.797V264.161L0 51.3647Z" transform="translate(433.081 279) scale(3)" fill="url(#paint3_linear)"/>
<defs>
<linearGradient id="paint0_linear" x2="1" gradientUnits="userSpaceOnUse" gradientTransform="matrix(4.5224 267.76 -89.8005 1.5173 35.7662 -15.3442)">
<stop stop-color="white" stop-opacity="0.8"/>
<stop offset="1" stop-color="white"/>
</linearGradient>
<linearGradient id="paint1_linear" x2="1" gradientUnits="userSpaceOnUse" gradientTransform="translate(26.411 15.0324) scale(43.0787 248.298) rotate(90)">
<stop stop-color="white"/>
<stop offset="1" stop-color="white" stop-opacity="0.8"/>
</linearGradient>
<linearGradient id="paint2_linear" x2="1" gradientUnits="userSpaceOnUse" gradientTransform="matrix(64.6816 -71.2047 70.389 64.131 -17.882 40.9653)">
<stop stop-color="white"/>
<stop offset="1" stop-color="white" stop-opacity="0.8"/>
</linearGradient>
<linearGradient id="paint3_linear" x2="1" gradientUnits="userSpaceOnUse" gradientTransform="translate(103.051 5.50336) scale(191.403 259.247) rotate(90)">
<stop stop-color="white"/>
<stop offset="1" stop-color="white" stop-opacity="0.8"/>
</linearGradient>
</defs>
</svg>
